<svg id="Layer_3" data-name="Layer 3" xmlns="http://www.w3.org/2000/svg" xmlns:xlink="http://www.w3.org/1999/xlink" viewBox="0 0 166.79 166.79">
    <defs>
        <style>.cls-1{fill:#fff;}.cls-2{fill:url(#linear-gradient);}.cls-3{fill:url(#radial-gradient);}.cls-4{fill:url(#radial-gradient-2);}.cls-5{fill:url(#radial-gradient-3);}.cls-6{fill:url(#radial-gradient-4);}</style>
        <linearGradient id="linear-gradient" x1="380.49" y1="54.23" x2="288.8" y2="54.23" gradientUnits="userSpaceOnUse">
            <stop offset="0" stop-color="#19237e" />
            <stop offset="1" stop-color="#0856b6" />
        </linearGradient>
        <radialGradient id="radial-gradient" cx="83.4" cy="83.4" r="187.75" gradientUnits="userSpaceOnUse">
            <stop offset="0.03" stop-color="#78a3d4" />
            <stop offset="0.05" stop-color="#709dd2" />
            <stop offset="0.16" stop-color="#5087c9" />
            <stop offset="0.27" stop-color="#3675c2" />
            <stop offset="0.4" stop-color="#2167bd" />
            <stop offset="0.54" stop-color="#135eb9" />
            <stop offset="0.71" stop-color="#0b58b7" />
            <stop offset="1" stop-color="#0856b6" />
        </radialGradient>
        <radialGradient id="radial-gradient-2" cx="94.83" cy="80.76" r="29.24" gradientUnits="userSpaceOnUse">
            <stop offset="0" stop-color="#f2f6f8" />
            <stop offset="1" stop-color="#78a2d3" />
        </radialGradient>
        <radialGradient id="radial-gradient-3" cx="85.74" cy="83.98" r="183.18" gradientUnits="userSpaceOnUse">
            <stop offset="0.03" stop-color="#19237e" />
            <stop offset="0.68" stop-color="#0856b6" />
        </radialGradient>
        <radialGradient id="radial-gradient-4" cx="97.91" cy="82.08" r="80.45" gradientUnits="userSpaceOnUse">
            <stop offset="0" stop-color="#f2f6f8" />
            <stop offset="0.1" stop-color="#dae6f1" />
            <stop offset="0.28" stop-color="#b7cde6" />
            <stop offset="0.46" stop-color="#9bbade" />
            <stop offset="0.64" stop-color="#88add8" />
            <stop offset="0.82" stop-color="#7ca5d4" />
            <stop offset="1" stop-color="#78a2d3" />
        </radialGradient>
    </defs>
    <title>CLAV-LOGO-TEST</title>
    <path class="cls-3" d="M84.78,21.57a61.84,61.84,0,1,0,60.45,63.21A61.84,61.84,0,0,0,84.78,21.57ZM91.64,142c-3.32.38-6.74.34-10.21.46-10.94.4-20.09-5.81-20-7.93A8.06,8.06,0,0,1,63.25,130c6-5.48,21-9.26,26.87-10.84,7.41-2,16.52-2.37,18.57,9.22C110.22,137.5,102.18,140.55,91.64,142ZM35.19,76.47c-.54-4.34,9.92-5.44,15.16-5.59,3.21-.09,6.7-.07,9.06,1.81a8.91,8.91,0,0,1,2.74,6.26,10.69,10.69,0,0,1-.39,3.93c-1.5,4.64-6.82,5.35-13.28,3.57-6-1.66-10.22-4.09-12.14-7A7.56,7.56,0,0,1,35.19,76.47Zm-5.26-4.77c-5.58-9.8,22.25-42.39,33.33-36.33a7.81,7.81,0,0,1,.7,1c3.4,6,3.18,13.38-5.78,20.18-.34.25-.67.5-1,.76C48.27,63.54,35.4,73.61,29.94,71.69ZM58.78,96.23c-1.48-2.49-.28-5.14,3-6.57,2.83-1.25,8.81-2.81,10.38-1.21a1.41,1.41,0,0,1,.38.91q0,.34,0,.66c-.08,3.19-2,5.09-5.05,7.3C63.73,99.58,60.26,98.72,58.78,96.23ZM97.2,54.45a19,19,0,0,1,0,3.52C96.11,68.41,85.6,71,79.36,64.6c-6.9-7.09-11.15-18-6-24.25,1.18-1.42,5.66-.81,10.42,1.13C90.17,44.26,96.74,49.08,97.2,54.45Zm7.14,29.41a3.51,3.51,0,0,1-1,4.42,8.26,8.26,0,0,1-1.15.13,13.11,13.11,0,0,1-8.79-2.93c-1-1.08-1.38-2.21-.61-3.11C97.12,77.42,103.35,82.59,104.34,83.86Zm-16.15-3C88.08,86,83.1,91.11,78.77,91A5.07,5.07,0,0,1,75.7,90c-1.45-2-1.56-5.63-1-9.29.5-3.44,1.8-6.84,3.81-8.82a7.42,7.42,0,0,1,4.21-1.26C87.17,70.7,88.32,75.34,88.2,80.83ZM71.42,77.64a2.4,2.4,0,0,1-1.46.26c-2.63-.36-5.48-4.72-6.87-7.1C61.43,68,61.81,63.32,66.16,60.6a4,4,0,0,1,2.12-.68c3,.73,5.24,5.14,5.93,9C75.11,74,74,76.2,71.42,77.64Zm19.5,32a8.36,8.36,0,0,1-1,2.1c-4.19,6.33-17.06,9.18-21.76,8.94-5.19-.26-4.59-6.86-1.26-14.48a23.23,23.23,0,0,1,6.26-8.92,18.78,18.78,0,0,1,10-3.81C87.43,93.08,93.33,101.83,90.92,109.63Zm13.63-34.52c-2.87,2.77-8,3.78-10.51,3L93.8,78l-.08,0a2.4,2.4,0,0,1-.87-.59l-.12-.16-.09-.16a1.25,1.25,0,0,1-.11-.4c-.51-5.89,1.37-9.86,4.06-12.27,3.79-3,9.09-2.41,11.09,0A6.31,6.31,0,0,1,109,70,28.57,28.57,0,0,1,104.55,75.11ZM100.1,41c-8.5,1.16-25.69-2.22-31.56-9.38a2.16,2.16,0,0,1-.5-1.28c0-2.76,6.62-5.58,16.66-5.24,16,.55,19.15,5,20.23,6.78A7.47,7.47,0,0,1,106,34.88,7.18,7.18,0,0,1,100.1,41Zm-3.24,66c-2.49-3.6-8.36-10.88-4.14-14.1a4.9,4.9,0,0,1,2-.81c3.3-.62,8.66,1,14.26,4.55,4.6,2.91,7.45,12,1.16,15.69C102.92,116.6,99.35,110.67,96.86,107.07Zm12.41-28.26c2.57-2.22,9.11-2.5,13.45,1.35S129,86,127.6,90.08s-11.11,1.54-15.84.47C108.07,89.72,106.7,81,109.27,78.81Zm2.83-14.39C108.2,58.93,106,53,106.34,47.79A11.74,11.74,0,0,1,109,42c11.86-14.05,33.87,21.2,34.87,38.16a6.46,6.46,0,0,1-2.61,4.51C134.52,89.17,118.08,72.83,112.1,64.42ZM55.4,102.77c10.82,13.53,4.36,21-2.28,26.38a4.41,4.41,0,0,1-2.31,1C41.3,128.7,24.52,108.7,23.35,88.94c-.37-6.27.9-8.81,2.24-9.37C32.88,76.56,44.58,89.24,55.4,102.77ZM130.9,93c6.65,1.39,9.67,5.7,7.93,11.31-1.58,5.08-15.3,24.63-22.17,23.13a3.43,3.43,0,0,1-1.9-1.19C109.93,120.52,122.73,91.32,130.9,93Z" />
    <circle class="cls-4" cx="83.4" cy="83.4" r="29.24" />
    <path class="cls-5" d="M83.4,21.55A61.85,61.85,0,1,0,145.24,83.4,61.85,61.85,0,0,0,83.4,21.55Zm10.24,8.3C103.77,22.8,143,56,128.43,64.79c-6.12,3.67-12.86,2-20.08-7.77S87.9,33.83,93.63,29.85ZM86.07,89.19c-5,0-11.49-6.19-11.49-10.37s6-4.87,11.35-4.21,11.35,3.25,11.35,7.57S91.36,89.19,86.07,89.19ZM83.4,104.35c-1.26,1-5,.48-5.27-3s4.13-11.5,6.69-9.38C89.87,96.12,84.65,103.33,83.4,104.35Zm-9-21c.47,4.25-9.27,11.19-17.12,8.95S45.65,74.18,45.79,69s6.76-4.74,14.45-1.58C68.31,70.71,73.53,75.47,74.4,83.4ZM68.89,56.71c2.77-1.73,5.79-.45,7.48,3.18s3.85,13.21.5,13.45c-4,.29-7.3-2.95-9.59-6.56C64.65,62.62,66.12,58.44,68.89,56.71ZM60.07,96c3.79-2.74,12.6-8.86,16.15-4.43,2.31,2.89.36,10.63-4.15,18.14S54,117.8,52.87,109C52.1,102.89,56.28,98.69,60.07,96ZM97.48,59c3.58-2.2,9.56-1.84,13.17,3.64s-3.42,10-9.92,11.29S90.19,73.3,88.26,70C86.09,66.22,93.9,61.17,97.48,59ZM90.3,92.37c15.12-1.66,16.62,11.36,12.64,14.87-3.61,3.18-8.43,1.24-11.38-2C88.15,101.44,87.62,92.67,90.3,92.37Zm11.8-13.43c6.93-7.05,17.76-11.55,24.11-6.5,3.32,2.64-3.68,24.07-13.57,25.15C99.35,99,95.17,86,102.1,78.94ZM95.17,50.08c.26,5.23.27,12.45-7.81,13.17s-10.51-6.92-8.65-14.77,6.53-13.43,10.37-14C93.41,33.84,94.91,44.84,95.17,50.08ZM80.6,24.37c2.79.4,4.74-.17,5.33,1.16,3.18,7.22-7,19.56-20.28,30.68s-23.12,6-28.66-.55C30.24,47.71,56.61,26,80.6,24.37ZM25,92.94c-.45-3.31-.49-6.73-.69-10.2-.65-10.93,5.36-20.21,7.48-20.18,7.28.09,14.86,13.63,17.32,28.36,1.26,7.57,1.95,17.68-9.63,19.88C30.39,112.54,26.68,103.45,25,92.94ZM75.72,131c-1.24,6.67-6.38,9.88-12,8.26S33.21,119.77,40,113.84C45.65,108.89,77.25,122.82,75.72,131Zm2-3.29c-4.09-1.35-2.36-11.3-1.4-16.05C77,108,86.89,106,89.17,108.57s2.6,9.75-1.15,14.18S81.78,129.09,77.7,127.74Zm9.75,16.65c-1.87-.31-5.07-.45-6-1.89-4.31-6.79,12.79-24.82,21.06-31s16.6-8.44,22.82-3.42C139.65,119.65,104.38,143,87.44,144.39Zm47.88-40.62c-4.59,3-9.15.89-9.93-4.05-1.35-8.47,2.07-27,9.1-33,3-2.59,7.31,5.09,7.17,16.71C141.46,99.39,137,102.66,135.33,103.77Z" />
    <path class="cls-6" d="M83.4,20.93A62.47,62.47,0,1,0,145.87,83.4,62.47,62.47,0,0,0,83.4,20.93Zm11.77,7c10.14-7,49.41,26.18,34.79,34.94-6.12,3.67-13.86,3.47-21.08-6.35S89.44,32,95.17,28Zm-9.1,60.16c-5.2,0-10.4-4.87-10.4-9.2S80,72.59,85.93,73.31s10.25,4.62,10.25,9.1S91.56,88.14,86.07,88.14Zm-1.44,16.22c-1.44,1.59-5.49,3.46-5.82-2s3.27-11.65,5.82-9.53C89.68,97,86.07,102.76,84.63,104.36Zm-11.29-21c.47,4.25-8.15,10.34-16,8.1S44.06,73.16,44.2,68s7.62-4.59,15.31-1.44C67.59,69.84,72.46,75.47,73.34,83.4ZM68.89,55.84C72.21,54.11,75,55.39,77,59s3.35,12.75,0,13c-4,.29-6.35-1.88-9.1-5.49C64.72,62.37,65.57,57.57,68.89,55.84ZM60.7,97c3.79-2.74,11.43-9.19,15-4.76,2.31,2.89,1.3,11.55-3.21,19.06s-14.11,8.37-17.14,0S56.91,99.73,60.7,97ZM97.59,57.83c3.58-2.2,9.56-1.84,13.17,3.64s-4,10.4-10.54,11.7-9.34,0-11.26-3.32C86.79,66.09,94,60,97.59,57.83ZM90.3,92.37c15.12-1.66,18,12.8,13.53,16.31-4,3.18-8.38-1.06-11.68-4.32C88.34,100.58,87.62,92.67,90.3,92.37Zm9.82-13.58c6.93-7.05,20.31-12.85,26.66-7.8,3.32,2.64-4.25,24.48-14.14,25.55C99.35,98,93.19,85.85,100.12,78.8Zm-3.95-30c.29,5.34-.72,12.56-8.81,13.28s-9.82-5.49-7.8-13.5S85.06,35.63,89.25,35C94,34.4,95.89,43.42,96.18,48.77ZM80.6,22.87c2.79.4,4.74,1.33,5.33,2.65,3.18,7.22-9.24,19.2-22.52,30.32S42.52,60.67,37,54.15C30.24,46.21,56.61,24.46,80.6,22.87ZM23.72,93.94A61,61,0,0,1,22.8,83.4c0-4.56.15-9.69,1.46-13.28S28.69,62,31.5,61.87c8.09-.47,14.15,21.69,16.31,29.06s2.74,16.46-8.81,18.77C28.83,111.73,25.94,104.8,23.72,93.94Zm51.11,37.17c-1.24,6.67-5.77,11.12-11.41,9.51s-29-19-22.19-24.91C46.88,110.76,76.35,122.9,74.83,131.11Zm2-1.35c-4.09-1.35-1-13.09,0-17.85.75-3.71,9.41-5.27,11.69-2.75s2.7,9-1,13.48S81,131.11,76.87,129.76ZM88,143.82a6.46,6.46,0,0,1-4.57-2.51c-4.63-6.68,11.34-23.48,19.62-29.64s17.57-8.41,24.26-3.47C142.66,119.56,106.17,142.46,88,143.82Zm49.7-40c-4.59,3-10.76.32-11.55-4.62-1.35-8.47,1.64-25.73,8.67-31.76,3-2.59,9.35,4.39,9.21,16C143.8,99.39,139.38,102.66,137.66,103.77Z" />
</svg>